<?xml version="1.0" encoding="utf-8"?>
<!-- Generator: Adobe Illustrator 19.0.0, SVG Export Plug-In . SVG Version: 6.00 Build 0)  -->
<svg version="1.1" id="Camada_1" xmlns="http://www.w3.org/2000/svg" xmlns:xlink="http://www.w3.org/1999/xlink" x="0px" y="0px"
	 viewBox="0 0 300 300" style="enable-background:new 0 0 300 300;" xml:space="preserve">
<style type="text/css">
	.st0{fill:#CCCCCC;}
</style>
<g id="XMLID_3_" transform="translate(192 48)">
	<path id="XMLID_1_" class="st0" d="M96.9,208.4c-0.1-12.8-9-13.1-19.7-17.4l-50-20c-0.9-0.3-1.7-0.7-2.6-1.1v0
		c-8.9-4-16.7-9.6-19.6-13.6l-0.1-0.1l0-0.1c-0.2-0.2-0.3-0.5-0.5-0.7l-0.1-0.2l0-0.1L4.1,155v0c-1.3-2-2.7-2.9-3.8-2.5l-0.1,0l0,0
		l0,0l-0.1,0h0L0,152.6c-1.4,0.7-1.1-0.1-1.6-1.5c-1.4-3.7-3.6-10.6-3.9-11.6c-0.5-1.9-1.9,3-1.6-2.3l0.6-9.6c0.9-1,1.7-1.8,2.2-2.4
		c3.3-3.7,3.5-13.6,5.1-16c1.6-2.4,4.9-2.9,8.2-14.1c3.3-11.2,7.2-27.1,3.1-27.4c-1-0.1-2.2,0.6-3.4,1.7c0.7-4.1,2.3-13.4,2.6-20.3
		c0.5-9.1-1-32.3-6.2-40.7C1.7,3-4.7-2.3-11.2-6.4c-3.9-2.5-7.7-4.5-10.9-5.9c-9.4-4.2-39.1-2.3-49.2,0C-82.8-9.7-90.8-2.5-95.9,6
		c-5.1,8.5-7.4,34-7,43.1c0.2,4.1,2.6,10.9,3.3,15.1c0.4,2.2,0.7,2.2,0.9,3.7c-0.4-0.2-0.8-0.2-1.2-0.2c-4.2,0.3-0.2,16.2,3,27.4
		c3.3,11.2,6.5,11.7,8.2,14.1c1.6,2.4,1.9,12.2,5.1,16c0.5,0.6,1.3,1.4,2.3,2.5l0.6,7.8l1.1,4.4c-0.5-1.2-1.5-2.1-2-0.4
		c-1.4,4.3-2.8,8.5-4.2,12.8c-0.1-0.2-0.4-0.3-0.6-0.4c-1.4-1.2-3.2-0.2-4.9,2.6c-2.5,4.1-10.6,10.1-20.1,14.3l-0.1,0.5l-0.1,0.5
		l-0.1,0.2c-0.7,0.3-1.5,0.6-2.3,0.9l-50,20c-10.7,4.3-19.7,4.6-19.7,17.4L-192,252h300L96.9,208.4L96.9,208.4z"/>
</g>
</svg>
